<svg xmlns="http://www.w3.org/2000/svg" xmlns:xlink="http://www.w3.org/1999/xlink" width="500" zoomAndPan="magnify" viewBox="0 0 375 374.999991" height="500" preserveAspectRatio="xMidYMid meet" version="1.0"><defs><clipPath id="dc8074bd49"><path d="M 91.726562 111.230469 L 282.976562 111.230469 L 282.976562 263.480469 L 91.726562 263.480469 Z M 91.726562 111.230469 " clip-rule="nonzero"/></clipPath></defs><g clip-path="url(#dc8074bd49)"><path fill="#121212" d="M 179 157.832031 C 178.695312 157.21875 178.464844 156.683594 178.3125 156.070312 C 178.003906 155.148438 177.851562 154.152344 177.851562 153.269531 C 177.851562 151.890625 178.082031 150.699219 178.617188 149.550781 C 179.078125 148.324219 179.84375 147.289062 180.652344 146.367188 L 180.726562 146.367188 C 181.417969 145.675781 182.183594 145.140625 182.988281 144.679688 C 183.527344 144.375 184.140625 144.144531 184.753906 143.914062 L 184.753906 130.261719 L 145.023438 191.617188 Z M 184.792969 162.550781 C 184.484375 162.398438 184.179688 162.320312 183.871094 162.167969 C 183.566406 162.089844 183.257812 161.9375 182.953125 161.78125 L 140.578125 203.925781 C 140.808594 204.234375 141.035156 204.617188 141.265625 205 C 141.421875 205.308594 141.652344 205.691406 141.804688 206.074219 L 173.097656 198.867188 L 173.097656 198.40625 C 173.097656 196.449219 173.480469 194.609375 174.167969 192.84375 C 174.9375 191.082031 176.011719 189.507812 177.351562 188.128906 C 178.503906 187.054688 179.769531 186.097656 181.226562 185.40625 L 181.300781 185.328125 C 182.375 184.792969 183.566406 184.410156 184.792969 184.179688 Z M 192.15625 161.78125 C 191.847656 161.9375 191.542969 162.089844 191.234375 162.167969 C 190.929688 162.320312 190.621094 162.398438 190.3125 162.550781 L 190.3125 184.179688 C 191.617188 184.410156 192.730469 184.867188 193.878906 185.40625 C 195.335938 186.097656 196.601562 187.09375 197.753906 188.128906 C 200.398438 190.773438 202.011719 194.417969 202.011719 198.367188 L 202.011719 198.902344 L 233.148438 206.035156 C 233.300781 205.652344 233.53125 205.269531 233.6875 204.964844 C 233.914062 204.578125 234.144531 204.195312 234.375 203.890625 Z M 190.3125 143.914062 C 190.929688 144.144531 191.542969 144.375 192.078125 144.679688 C 193 145.140625 193.765625 145.753906 194.417969 146.367188 C 195.261719 147.289062 196.027344 148.324219 196.449219 149.550781 C 196.988281 150.699219 197.21875 151.890625 197.21875 153.269531 C 197.21875 154.191406 197.0625 155.1875 196.757812 156.070312 C 196.601562 156.683594 196.375 157.296875 196.066406 157.832031 L 230.234375 191.925781 L 190.3125 130.261719 Z M 163.203125 221.527344 C 163.890625 221.527344 164.660156 221.605469 165.3125 221.757812 C 165.695312 221.835938 166.078125 221.988281 166.460938 222.144531 L 176.855469 208.183594 C 176.242188 207.570312 175.78125 206.878906 175.320312 206.226562 C 174.9375 205.613281 174.554688 204.925781 174.246094 204.3125 L 143.03125 211.519531 L 143.03125 211.980469 C 143.03125 213.9375 142.648438 215.777344 141.878906 217.542969 C 141.113281 219.304688 140.039062 220.878906 138.773438 222.257812 L 138.699219 222.257812 C 137.394531 223.636719 135.820312 224.671875 134.058594 225.363281 C 132.292969 226.054688 130.492188 226.515625 128.496094 226.515625 C 127.347656 226.515625 126.3125 226.359375 125.238281 226.132812 C 124.546875 225.902344 123.78125 225.671875 123.128906 225.441406 L 108.785156 247.722656 C 108.863281 247.875 109.015625 248.027344 109.09375 248.179688 L 153.5 231.769531 C 153.5 231.613281 153.5 231.382812 153.5 231.230469 C 153.5 229.851562 153.730469 228.660156 154.265625 227.511719 C 154.726562 226.285156 155.496094 225.25 156.300781 224.328125 L 156.375 224.328125 C 157.296875 223.410156 158.332031 222.71875 159.484375 222.296875 L 159.558594 222.21875 C 160.632812 221.757812 161.9375 221.527344 163.203125 221.527344 Z M 202.625 228.433594 C 202.777344 227.894531 203.007812 227.359375 203.3125 226.820312 C 203.542969 226.359375 203.851562 225.824219 204.15625 225.363281 L 193.84375 211.40625 C 193 211.789062 192.15625 212.09375 191.273438 212.402344 C 190.121094 212.710938 188.855469 212.863281 187.554688 212.863281 C 186.324219 212.863281 185.058594 212.710938 183.910156 212.402344 C 182.988281 212.09375 182.144531 211.789062 181.339844 211.40625 L 171.023438 225.363281 C 171.332031 225.824219 171.640625 226.359375 171.867188 226.820312 C 172.175781 227.359375 172.40625 227.894531 172.558594 228.433594 Z M 266.050781 248.179688 C 266.128906 248.027344 266.28125 247.875 266.359375 247.722656 L 251.863281 225.324219 C 251.171875 225.632812 250.40625 225.863281 249.753906 226.015625 C 248.601562 226.324219 247.566406 226.476562 246.417969 226.476562 C 244.460938 226.476562 242.621094 226.015625 240.855469 225.324219 C 239.09375 224.558594 237.519531 223.484375 236.140625 222.21875 C 234.835938 220.839844 233.722656 219.265625 233.035156 217.503906 C 232.265625 215.738281 231.882812 213.9375 231.882812 211.941406 L 231.882812 211.480469 L 200.820312 204.273438 C 200.515625 204.964844 200.132812 205.578125 199.746094 206.191406 C 199.289062 206.878906 198.828125 207.570312 198.214844 208.144531 L 208.605469 222.105469 C 208.988281 221.949219 209.375 221.796875 209.757812 221.722656 C 210.445312 221.566406 211.214844 221.492188 211.867188 221.492188 C 213.246094 221.492188 214.433594 221.722656 215.585938 222.257812 C 216.8125 222.71875 217.847656 223.484375 218.769531 224.289062 C 219.613281 225.210938 220.378906 226.246094 220.800781 227.472656 C 221.335938 228.625 221.566406 229.8125 221.566406 231.191406 C 221.566406 231.347656 221.566406 231.578125 221.566406 231.730469 Z M 104.070312 244.769531 L 118.566406 222.371094 L 118.335938 222.21875 C 117.03125 220.839844 115.996094 219.265625 115.230469 217.503906 C 114.539062 215.738281 114.078125 213.9375 114.078125 211.941406 C 114.078125 209.949219 114.539062 208.144531 115.230469 206.382812 C 115.996094 204.617188 117.070312 203.046875 118.335938 201.664062 C 119.714844 200.359375 121.289062 199.25 123.050781 198.558594 C 124.816406 197.792969 126.617188 197.410156 128.613281 197.410156 C 129.761719 197.410156 130.796875 197.5625 131.871094 197.792969 C 132.5625 197.945312 133.328125 198.175781 133.980469 198.480469 L 180.152344 127.15625 C 179.539062 126.386719 179 125.46875 178.617188 124.585938 L 178.542969 124.507812 C 178.082031 123.359375 177.851562 122.167969 177.851562 120.867188 C 177.851562 119.5625 178.082031 118.296875 178.617188 117.144531 C 179.078125 115.996094 179.84375 114.960938 180.652344 114.039062 L 180.726562 113.964844 C 181.648438 113.121094 182.683594 112.429688 183.832031 111.929688 L 183.910156 111.929688 C 184.984375 111.46875 186.25 111.242188 187.476562 111.242188 C 188.855469 111.242188 190.046875 111.46875 191.195312 111.929688 C 192.421875 112.46875 193.457031 113.15625 194.378906 114.039062 C 195.222656 114.960938 195.988281 115.996094 196.410156 117.144531 C 196.949219 118.296875 197.179688 119.5625 197.179688 120.867188 C 197.179688 122.167969 196.949219 123.433594 196.410156 124.585938 C 196.027344 125.507812 195.492188 126.425781 194.878906 127.15625 L 241.046875 198.445312 C 241.664062 198.214844 242.429688 197.984375 243.082031 197.832031 C 244.15625 197.601562 245.191406 197.445312 246.265625 197.445312 C 248.21875 197.445312 250.058594 197.832031 251.824219 198.597656 C 253.589844 199.289062 255.160156 200.4375 256.542969 201.703125 C 259.109375 204.347656 260.796875 207.914062 260.796875 211.941406 C 260.796875 213.898438 260.335938 215.738281 259.648438 217.503906 C 258.878906 219.265625 257.808594 220.839844 256.542969 222.21875 L 256.464844 222.296875 L 270.960938 244.769531 C 271.804688 244.460938 272.722656 244.308594 273.683594 244.308594 C 274.988281 244.308594 276.175781 244.613281 277.324219 245.074219 C 278.554688 245.613281 279.589844 246.300781 280.507812 247.183594 C 281.351562 248.105469 282.121094 249.140625 282.542969 250.289062 C 283.078125 251.441406 283.308594 252.707031 283.308594 254.011719 C 283.308594 255.3125 283.078125 256.578125 282.542969 257.730469 C 282.082031 258.878906 281.3125 259.914062 280.507812 260.835938 L 280.433594 260.914062 C 279.511719 261.757812 278.515625 262.523438 277.324219 262.945312 C 276.175781 263.40625 274.988281 263.710938 273.683594 263.710938 C 272.300781 263.710938 271.113281 263.40625 269.964844 262.945312 C 268.734375 262.410156 267.699219 261.71875 266.78125 260.835938 C 265.9375 259.914062 265.167969 258.878906 264.746094 257.730469 L 264.671875 257.652344 C 264.210938 256.503906 263.980469 255.3125 263.980469 254.011719 C 263.980469 253.78125 263.980469 253.625 263.980469 253.394531 L 219.574219 236.984375 L 219.496094 237.136719 C 219.191406 237.445312 218.960938 237.75 218.730469 238.058594 L 218.652344 238.132812 C 217.734375 238.976562 216.699219 239.667969 215.546875 240.089844 C 214.398438 240.625 213.207031 240.855469 211.828125 240.855469 C 210.523438 240.855469 209.335938 240.625 208.183594 240.089844 C 206.957031 239.628906 205.921875 238.863281 205 238.058594 C 204.3125 237.367188 203.773438 236.601562 203.3125 235.71875 C 203.007812 235.179688 202.777344 234.566406 202.546875 233.953125 L 172.40625 233.953125 C 172.175781 234.566406 171.945312 235.179688 171.640625 235.71875 C 171.179688 236.636719 170.640625 237.40625 169.953125 238.058594 L 169.875 238.132812 C 168.953125 238.976562 167.957031 239.667969 166.769531 240.089844 C 165.617188 240.625 164.429688 240.855469 163.125 240.855469 C 161.746094 240.855469 160.554688 240.625 159.40625 240.089844 C 158.179688 239.628906 157.144531 238.863281 156.222656 238.058594 C 155.914062 237.75 155.609375 237.367188 155.378906 236.984375 L 111.050781 253.433594 C 111.050781 253.664062 111.050781 253.816406 111.050781 254.046875 C 111.050781 255.351562 110.820312 256.617188 110.28125 257.769531 C 109.820312 258.917969 109.054688 259.953125 108.25 260.875 L 108.171875 260.949219 C 107.253906 261.792969 106.21875 262.5625 105.066406 262.984375 C 103.917969 263.445312 102.726562 263.75 101.347656 263.75 C 100.042969 263.75 98.855469 263.445312 97.703125 262.984375 C 96.476562 262.445312 95.441406 261.757812 94.519531 260.875 C 93.675781 259.953125 92.910156 258.917969 92.488281 257.769531 L 92.375 257.691406 C 91.914062 256.539062 91.683594 255.351562 91.683594 254.046875 C 91.683594 252.746094 91.914062 251.480469 92.449219 250.328125 C 92.910156 249.179688 93.675781 248.144531 94.484375 247.222656 L 94.558594 247.144531 C 95.480469 246.300781 96.476562 245.535156 97.664062 245.113281 C 98.816406 244.652344 100.082031 244.347656 101.308594 244.347656 C 102 244.347656 102.613281 244.421875 103.226562 244.578125 C 103.457031 244.613281 103.761719 244.613281 104.070312 244.769531 Z M 104.070312 244.769531 " fill-opacity="1" fill-rule="nonzero"/></g></svg>